<?xml version="1.0" encoding="utf-8"?>
<!-- Generator: Adobe Illustrator 25.0.1, SVG Export Plug-In . SVG Version: 6.00 Build 0)  -->
<svg version="1.1" id="圖層_1" xmlns="http://www.w3.org/2000/svg" xmlns:xlink="http://www.w3.org/1999/xlink" x="0px" y="0px"
	 viewBox="0 0 760.3 166" style="enable-background:new 0 0 760.3 166;" xml:space="preserve">
<style type="text/css">
	.st0{opacity:0.46;}
	.st1{fill:#B82C30;}
	.st2{clip-path:url(#SVGID_2_);}
	.st3{opacity:0.46;fill:#B82C30;enable-background:new    ;}
	.st4{clip-path:url(#SVGID_4_);}
</style>
<g class="st0">
	<path class="st1" d="M296.4,39.2v19.6c0,2.4-0.9,4.6-2.6,6.3l-11.2,11.2c-1.1,1.1-1.1,2.8-0.1,3.9c0,0,0,0,0.1,0.1l13.6,13.7
		c1.8,1.8,2.8,4.2,2.8,6.7v23.3c0,3.9-3.1,7-7,7h-65c-3.9,0-7-3.1-7-7V39.2c0-3.9,3.1-7,7-7h62.4C293.3,32.2,296.4,35.3,296.4,39.2z
		 M241.1,54.7v14.1c0,1.5,1.2,2.8,2.8,2.8h11.9c2.4,0,4.7-1,6.4-2.7l12.3-12.3c0.5-0.5,0.8-1.2,0.8-2l0,0c0-1.5-1.2-2.8-2.8-2.8l0,0
		h-28.6C242.4,51.9,241.1,53.2,241.1,54.7C241.1,54.7,241.1,54.7,241.1,54.7z M241.1,94.2v14.2c0,1.5,1.2,2.8,2.8,2.8h31.2
		c1.5,0,2.8-1.2,2.8-2.8v0V107c0-0.7-0.3-1.5-0.8-2l-11.7-11.7c-1.2-1.2-2.9-1.9-4.7-1.9h-16.8C242.4,91.4,241.1,92.6,241.1,94.2
		L241.1,94.2z"/>
	<path class="st1" d="M324.6,32.2h46.5c1.8,0,3.6,0.7,5,2l16.9,16.9c1.4,1.4,2.1,3.2,2.1,5.2v38.2c0,2-1.6,3.6-3.5,3.6h-10.1
		c-2,0-3.6,1.6-3.6,3.5c0,0.8,0.3,1.6,0.8,2.2l14.1,17.6c2,2.5,1.6,6.2-0.9,8.2c-1,0.8-2.3,1.3-3.7,1.3h-15c-1.1,0-2.1-0.5-2.8-1.3
		l-24.2-30.2c-0.7-0.8-1.7-1.3-2.8-1.3l0,0c-2,0-3.6,1.6-3.6,3.5c0,0,0,0,0,0V125c0,3.2-2.6,5.9-5.9,5.9h-9.3
		c-3.2,0-5.9-2.6-5.9-5.9V38.1C318.7,34.8,321.4,32.2,324.6,32.2z M344.9,78.2h24c2.8,0,5.1-2.3,5.1-5.1v-7.9c0-1.8-0.7-3.5-2-4.7
		l-6.5-6.5c-1.3-1.3-3.1-2.1-5-2.1h-15.6c-2.8,0-5.1,2.3-5.1,5.1v16.1C339.8,76,342.1,78.2,344.9,78.2L344.9,78.2z"/>
	<path class="st1" d="M410.8,126.5v-90c0-2.4,1.9-4.3,4.3-4.3h12.4c2.4,0,4.3,1.9,4.3,4.3v90c0,2.4-1.9,4.3-4.3,4.3h-12.4
		C412.7,130.9,410.8,128.9,410.8,126.5z"/>
	<path class="st1" d="M517.5,38.5l-4.2,10.6c-0.7,1.7-2.4,2.9-4.2,2.9h-33.1c-2.5,0-4.6,2-4.6,4.6c0,0,0,0,0,0v40.9
		c0,1.2,0.5,2.4,1.3,3.2l9.2,9.2c0.9,0.9,2,1.3,3.2,1.3h26.6c1.9,0,3.5,1.1,4.2,2.9l4.2,10.6c0.9,2.3-0.2,5-2.5,5.9
		c-0.5,0.2-1.1,0.3-1.7,0.3h-42.7c-1.2,0-2.4-0.5-3.2-1.3l-18.4-18.4c-0.9-0.9-1.3-2-1.3-3.2V36.8c0-2.5,2-4.6,4.5-4.6c0,0,0,0,0,0
		h58.4c2.5,0,4.6,2,4.6,4.6C517.8,37.3,517.7,37.9,517.5,38.5z"/>
	<path class="st1" d="M568,75.1l23.7-40.8c0.8-1.3,2.2-2.1,3.7-2.1h15.2c2.3,0,4.3,1.9,4.3,4.2c0,0.7-0.2,1.5-0.6,2.1l-23.2,40
		c-0.8,1.4-0.8,3.2,0.2,4.6l28.7,41.1c1.3,1.9,0.9,4.6-1,5.9c-0.7,0.5-1.6,0.8-2.4,0.8h-17.3c-1.4,0-2.7-0.7-3.5-1.8L581,108.7
		c-1.4-1.9-4-2.4-5.9-1c-0.5,0.4-0.9,0.8-1.2,1.4l-11.3,19.7c-0.8,1.3-2.2,2.1-3.7,2.1h-15.6c-2.3,0-4.2-1.9-4.2-4.3V36.5
		c0-2.3,1.9-4.2,4.2-4.2h12.5c2.3,0,4.2,1.9,4.2,4.2V73c0,2.3,1.9,4.2,4.2,4.2C565.8,77.3,567.2,76.5,568,75.1z"/>
	<path class="st1" d="M664.9,65.1l49,21.2c1.7,0.7,2.7,2.4,2.7,4.2v18.9c0,1.2-0.4,2.3-1.2,3.1l-15.8,17c-0.9,0.9-2.1,1.4-3.3,1.4
		h-54c-2.5,0-4.5-2-4.5-4.5V98c0-2.5,2-4.5,4.5-4.5c0.5,0,1.1,0.1,1.6,0.3l12,4.5c1.8,0.6,3,2.3,3,4.2v4.2c0,2.5,2,4.5,4.5,4.5h19.9
		c1.2,0,2.4-0.5,3.2-1.3l4.5-4.5c1.8-1.8,1.7-4.7,0-6.4c-0.4-0.4-0.9-0.7-1.5-1l-49-21.2c-1.7-0.7-2.7-2.4-2.7-4.2V55.1
		c0-1.2,0.5-2.4,1.3-3.2l18.4-18.4c0.9-0.9,2-1.3,3.2-1.3h50.1c2.5,0,4.5,2,4.5,4.5v28.4c0,2.5-2,4.5-4.5,4.5
		c-0.5,0-1.1-0.1-1.6-0.3l-12-4.5c-1.8-0.6-3-2.3-3-4.2v-4.2c0-2.5-2-4.5-4.5-4.5h-18.5c-1.2,0-2.4,0.5-3.2,1.3l-4.5,4.5
		c-1.8,1.8-1.8,4.6,0,6.4C663.9,64.6,664.4,64.9,664.9,65.1z"/>
</g>
<g>
	<defs>
		<path id="SVGID_1_" d="M233.3,91.4h470.2c7.3,0,13.2,5.9,13.2,13.2v30.8c0,7.3-5.9,13.2-13.2,13.2H233.3
			c-7.3,0-13.2-5.9-13.2-13.2v-30.8C220.1,97.3,226,91.4,233.3,91.4z"/>
	</defs>
	<clipPath id="SVGID_2_">
		<use xlink:href="#SVGID_1_"  style="overflow:visible;"/>
	</clipPath>
	<g class="st2">
		<path class="st1" d="M296.4,39.2v19.6c0,2.4-0.9,4.6-2.6,6.3l-11.2,11.2c-1.1,1.1-1.1,2.8-0.1,3.9c0,0,0,0,0.1,0.1l13.6,13.7
			c1.8,1.8,2.8,4.2,2.8,6.7v23.3c0,3.9-3.1,7-7,7h-65c-3.9,0-7-3.1-7-7V39.2c0-3.9,3.1-7,7-7h62.4C293.3,32.2,296.4,35.3,296.4,39.2
			z M241.1,54.7v14.1c0,1.5,1.2,2.8,2.8,2.8h11.9c2.4,0,4.7-1,6.4-2.7l12.3-12.3c0.5-0.5,0.8-1.2,0.8-2l0,0c0-1.5-1.2-2.8-2.8-2.8
			l0,0h-28.6C242.4,51.9,241.1,53.2,241.1,54.7C241.1,54.7,241.1,54.7,241.1,54.7z M241.1,94.2v14.2c0,1.5,1.2,2.8,2.8,2.8h31.2
			c1.5,0,2.8-1.2,2.8-2.8v0V107c0-0.7-0.3-1.5-0.8-2l-11.7-11.7c-1.2-1.2-2.9-1.9-4.7-1.9h-16.8C242.4,91.4,241.1,92.6,241.1,94.2
			L241.1,94.2z"/>
		<path class="st1" d="M324.6,32.2h46.5c1.8,0,3.6,0.7,5,2l16.9,16.9c1.4,1.4,2.1,3.2,2.1,5.2v38.2c0,2-1.6,3.6-3.5,3.6h-10.1
			c-2,0-3.6,1.6-3.6,3.5c0,0.8,0.3,1.6,0.8,2.2l14.1,17.6c2,2.5,1.6,6.2-0.9,8.2c-1,0.8-2.3,1.3-3.7,1.3h-15c-1.1,0-2.1-0.5-2.8-1.3
			l-24.2-30.2c-0.7-0.8-1.7-1.3-2.8-1.3l0,0c-2,0-3.6,1.6-3.6,3.5c0,0,0,0,0,0V125c0,3.2-2.6,5.9-5.9,5.9h-9.3
			c-3.2,0-5.9-2.6-5.9-5.9V38.1C318.7,34.8,321.4,32.2,324.6,32.2z M344.9,78.2h24c2.8,0,5.1-2.3,5.1-5.1v-7.9c0-1.8-0.7-3.5-2-4.7
			l-6.5-6.5c-1.3-1.3-3.1-2.1-5-2.1h-15.6c-2.8,0-5.1,2.3-5.1,5.1v16.1C339.8,76,342.1,78.2,344.9,78.2L344.9,78.2z"/>
		<path class="st1" d="M410.8,126.5v-90c0-2.4,1.9-4.3,4.3-4.3h12.4c2.4,0,4.3,1.9,4.3,4.3v90c0,2.4-1.9,4.3-4.3,4.3h-12.4
			C412.7,130.9,410.8,128.9,410.8,126.5z"/>
		<path class="st1" d="M517.5,38.5l-4.2,10.6c-0.7,1.7-2.4,2.9-4.2,2.9h-33.1c-2.5,0-4.6,2-4.6,4.6c0,0,0,0,0,0v40.9
			c0,1.2,0.5,2.4,1.3,3.2l9.2,9.2c0.9,0.9,2,1.3,3.2,1.3h26.6c1.9,0,3.5,1.1,4.2,2.9l4.2,10.6c0.9,2.3-0.2,5-2.5,5.9
			c-0.5,0.2-1.1,0.3-1.7,0.3h-42.7c-1.2,0-2.4-0.5-3.2-1.3l-18.4-18.4c-0.9-0.9-1.3-2-1.3-3.2V36.8c0-2.5,2-4.6,4.5-4.6c0,0,0,0,0,0
			h58.4c2.5,0,4.6,2,4.6,4.6C517.8,37.3,517.7,37.9,517.5,38.5z"/>
		<path class="st1" d="M568,75.1l23.7-40.8c0.8-1.3,2.2-2.1,3.7-2.1h15.2c2.3,0,4.3,1.9,4.3,4.2c0,0.7-0.2,1.5-0.6,2.1l-23.2,40
			c-0.8,1.4-0.8,3.2,0.2,4.6l28.7,41.1c1.3,1.9,0.9,4.6-1,5.9c-0.7,0.5-1.6,0.8-2.4,0.8h-17.3c-1.4,0-2.7-0.7-3.5-1.8L581,108.7
			c-1.4-1.9-4-2.4-5.9-1c-0.5,0.4-0.9,0.8-1.2,1.4l-11.3,19.7c-0.8,1.3-2.2,2.1-3.7,2.1h-15.6c-2.3,0-4.2-1.9-4.2-4.3V36.5
			c0-2.3,1.9-4.2,4.2-4.2h12.5c2.3,0,4.2,1.9,4.2,4.2V73c0,2.3,1.9,4.2,4.2,4.2C565.8,77.3,567.2,76.5,568,75.1z"/>
		<path class="st1" d="M664.9,65.1l49,21.2c1.7,0.7,2.7,2.4,2.7,4.2v18.9c0,1.2-0.4,2.3-1.2,3.1l-15.8,17c-0.9,0.9-2.1,1.4-3.3,1.4
			h-54c-2.5,0-4.5-2-4.5-4.5V98c0-2.5,2-4.5,4.5-4.5c0.5,0,1.1,0.1,1.6,0.3l12,4.5c1.8,0.6,3,2.3,3,4.2v4.2c0,2.5,2,4.5,4.5,4.5
			h19.9c1.2,0,2.4-0.5,3.2-1.3l4.5-4.5c1.8-1.8,1.7-4.7,0-6.4c-0.4-0.4-0.9-0.7-1.5-1l-49-21.2c-1.7-0.7-2.7-2.4-2.7-4.2V55.1
			c0-1.2,0.5-2.4,1.3-3.2l18.4-18.4c0.9-0.9,2-1.3,3.2-1.3h50.1c2.5,0,4.5,2,4.5,4.5v28.4c0,2.5-2,4.5-4.5,4.5
			c-0.5,0-1.1-0.1-1.6-0.3l-12-4.5c-1.8-0.6-3-2.3-3-4.2v-4.2c0-2.5-2-4.5-4.5-4.5h-18.5c-1.2,0-2.4,0.5-3.2,1.3l-4.5,4.5
			c-1.8,1.8-1.8,4.6,0,6.4C663.9,64.6,664.4,64.9,664.9,65.1z"/>
	</g>
</g>
<path class="st3" d="M61.5,110.5l20.2,20.2v-14.2c0-3.3-2.7-6-6-6H61.5z"/>
<path class="st3" d="M138.8,33.9L159,54.1h-14.2c-3.3,0-6-2.7-6-6V33.9z"/>
<path class="st3" d="M122.6,76.3v10.9c0,3.7-3,6.8-6.8,6.8h-10.9c-3.7,0-6.8-3-6.8-6.8V76.3c0-3.7,3-6.8,6.8-6.8h10.9
	C119.5,69.6,122.6,72.6,122.6,76.3z"/>
<path class="st3" d="M81.7,69.5V94c0,3.7-3,6.8-6.8,6.8H50.4c-3.7,0-6.8-3-6.8-6.8V69.5c0-3.7,3-6.8,6.8-6.8h24.5
	C78.7,62.8,81.7,65.8,81.7,69.5z"/>
<path class="st3" d="M129.4,26.5v20.8c0,3.7-3,6.8-6.8,6.8l0,0H98.1c-3.7,0-6.8-3-6.8-6.8V26.5c0-5.8,4.7-10.5,10.5-10.5
	c0,0,0,0,0,0h17C124.7,16,129.4,20.7,129.4,26.5C129.4,26.5,129.4,26.5,129.4,26.5z"/>
<path class="st3" d="M129.4,117.3v20.8c0,5.8-4.7,10.5-10.5,10.5h-17c-5.8,0-10.5-4.7-10.5-10.5v-20.8c0-3.7,3-6.8,6.8-6.8l0,0h24.5
	C126.4,110.5,129.4,113.6,129.4,117.3z"/>
<path class="st3" d="M176.9,69.5V94c0,3.7-3,6.8-6.8,6.8h-24.5c-3.7,0-6.8-3-6.8-6.8V69.5c0-3.7,3-6.8,6.8-6.8h24.5
	C173.8,62.8,176.9,65.8,176.9,69.5z"/>
<path class="st3" d="M81.7,33.9L61.5,54.1h14.1c3.3,0,6-2.7,6-6L81.7,33.9z"/>
<path class="st3" d="M159,110.5l-20.2,20.2v-14.2c0-3.3,2.7-6,6-6H159z"/>
<g>
	<defs>
		<path id="SVGID_3_" d="M690.9,76.3c-7.5-3.2-15.7-4.9-23.9-4.9h-156v0.2H229.6c-5.2,0-9.5,4.2-9.5,9.5l0,0v66.1l292.5-6.3v2.7
			l204.1,6.4V87.3L690.9,76.3z"/>
	</defs>
	<clipPath id="SVGID_4_">
		<use xlink:href="#SVGID_3_"  style="overflow:visible;"/>
	</clipPath>
	<g class="st4">
		<g class="st0">
			<path class="st1" d="M296.4,39.2v19.6c0,2.4-0.9,4.6-2.6,6.3l-11.2,11.2c-1.1,1.1-1.1,2.8-0.1,3.9c0,0,0,0,0.1,0.1l13.6,13.7
				c1.8,1.8,2.8,4.2,2.8,6.7v23.3c0,3.9-3.1,7-7,7h-65c-3.9,0-7-3.1-7-7V39.2c0-3.9,3.1-7,7-7h62.4
				C293.3,32.2,296.4,35.3,296.4,39.2z M241.1,54.7v14.1c0,1.5,1.2,2.8,2.8,2.8h11.9c2.4,0,4.7-1,6.4-2.7l12.3-12.3
				c0.5-0.5,0.8-1.2,0.8-2l0,0c0-1.5-1.2-2.8-2.8-2.8l0,0h-28.6C242.4,51.9,241.1,53.2,241.1,54.7C241.1,54.7,241.1,54.7,241.1,54.7
				z M241.1,94.2v14.2c0,1.5,1.2,2.8,2.8,2.8h31.2c1.5,0,2.8-1.2,2.8-2.8v0V107c0-0.7-0.3-1.5-0.8-2l-11.7-11.7
				c-1.2-1.2-2.9-1.9-4.7-1.9h-16.8C242.4,91.4,241.1,92.6,241.1,94.2L241.1,94.2z"/>
			<path class="st1" d="M324.6,32.2h46.5c1.8,0,3.6,0.7,5,2l16.9,16.9c1.4,1.4,2.1,3.2,2.1,5.2v38.2c0,2-1.6,3.6-3.5,3.6h-10.1
				c-2,0-3.6,1.6-3.6,3.5c0,0.8,0.3,1.6,0.8,2.2l14.1,17.6c2,2.5,1.6,6.2-0.9,8.2c-1,0.8-2.3,1.3-3.7,1.3h-15
				c-1.1,0-2.1-0.5-2.8-1.3l-24.2-30.2c-0.7-0.8-1.7-1.3-2.8-1.3l0,0c-2,0-3.6,1.6-3.6,3.5c0,0,0,0,0,0V125c0,3.2-2.6,5.9-5.9,5.9
				h-9.3c-3.2,0-5.9-2.6-5.9-5.9V38.1C318.7,34.8,321.4,32.2,324.6,32.2z M344.9,78.2h24c2.8,0,5.1-2.3,5.1-5.1v-7.9
				c0-1.8-0.7-3.5-2-4.7l-6.5-6.5c-1.3-1.3-3.1-2.1-5-2.1h-15.6c-2.8,0-5.1,2.3-5.1,5.1v16.1C339.8,76,342.1,78.2,344.9,78.2
				L344.9,78.2z"/>
			<path class="st1" d="M410.8,126.5v-90c0-2.4,1.9-4.3,4.3-4.3h12.4c2.4,0,4.3,1.9,4.3,4.3v90c0,2.4-1.9,4.3-4.3,4.3h-12.4
				C412.7,130.9,410.8,128.9,410.8,126.5z"/>
			<path class="st1" d="M517.5,38.5l-4.2,10.6c-0.7,1.7-2.4,2.9-4.2,2.9h-33.1c-2.5,0-4.6,2-4.6,4.6c0,0,0,0,0,0v40.9
				c0,1.2,0.5,2.4,1.3,3.2l9.2,9.2c0.9,0.9,2,1.3,3.2,1.3h26.6c1.9,0,3.5,1.1,4.2,2.9l4.2,10.6c0.9,2.3-0.2,5-2.5,5.9
				c-0.5,0.2-1.1,0.3-1.7,0.3h-42.7c-1.2,0-2.4-0.5-3.2-1.3l-18.4-18.4c-0.9-0.9-1.3-2-1.3-3.2V36.8c0-2.5,2-4.6,4.5-4.6
				c0,0,0,0,0,0h58.4c2.5,0,4.6,2,4.6,4.6C517.8,37.3,517.7,37.9,517.5,38.5z"/>
			<path class="st1" d="M568,75.1l23.7-40.8c0.8-1.3,2.2-2.1,3.7-2.1h15.2c2.3,0,4.3,1.9,4.3,4.2c0,0.7-0.2,1.5-0.6,2.1l-23.2,40
				c-0.8,1.4-0.8,3.2,0.2,4.6l28.7,41.1c1.3,1.9,0.9,4.6-1,5.9c-0.7,0.5-1.6,0.8-2.4,0.8h-17.3c-1.4,0-2.7-0.7-3.5-1.8L581,108.7
				c-1.4-1.9-4-2.4-5.9-1c-0.5,0.4-0.9,0.8-1.2,1.4l-11.3,19.7c-0.8,1.3-2.2,2.1-3.7,2.1h-15.6c-2.3,0-4.2-1.9-4.2-4.3V36.5
				c0-2.3,1.9-4.2,4.2-4.2h12.5c2.3,0,4.2,1.9,4.2,4.2V73c0,2.3,1.9,4.2,4.2,4.2C565.8,77.3,567.2,76.5,568,75.1z"/>
			<path class="st1" d="M664.9,65.1l49,21.2c1.7,0.7,2.7,2.4,2.7,4.2v18.9c0,1.2-0.4,2.3-1.2,3.1l-15.8,17c-0.9,0.9-2.1,1.4-3.3,1.4
				h-54c-2.5,0-4.5-2-4.5-4.5V98c0-2.5,2-4.5,4.5-4.5c0.5,0,1.1,0.1,1.6,0.3l12,4.5c1.8,0.6,3,2.3,3,4.2v4.2c0,2.5,2,4.5,4.5,4.5
				h19.9c1.2,0,2.4-0.5,3.2-1.3l4.5-4.5c1.8-1.8,1.7-4.7,0-6.4c-0.4-0.4-0.9-0.7-1.5-1l-49-21.2c-1.7-0.7-2.7-2.4-2.7-4.2V55.1
				c0-1.2,0.5-2.4,1.3-3.2l18.4-18.4c0.9-0.9,2-1.3,3.2-1.3h50.1c2.5,0,4.5,2,4.5,4.5v28.4c0,2.5-2,4.5-4.5,4.5
				c-0.5,0-1.1-0.1-1.6-0.3l-12-4.5c-1.8-0.6-3-2.3-3-4.2v-4.2c0-2.5-2-4.5-4.5-4.5h-18.5c-1.2,0-2.4,0.5-3.2,1.3l-4.5,4.5
				c-1.8,1.8-1.8,4.6,0,6.4C663.9,64.6,664.4,64.9,664.9,65.1z"/>
		</g>
	</g>
</g>
<path class="st1" d="M81.7,69.5V94c0,3.7-3,6.8-6.8,6.8H50.4c-3.7,0-6.8-3-6.8-6.8V69.5c0-3.7,3-6.8,6.8-6.8h24.5
	C78.7,62.8,81.7,65.8,81.7,69.5z"/>
<path class="st1" d="M129.4,26.5v20.8c0,3.7-3,6.8-6.8,6.8l0,0H98.1c-3.7,0-6.8-3-6.8-6.8V26.5c0-5.8,4.7-10.5,10.5-10.5
	c0,0,0,0,0,0h17C124.7,16,129.4,20.7,129.4,26.5C129.4,26.5,129.4,26.5,129.4,26.5z"/>
<path class="st1" d="M129.4,117.3v20.8c0,5.8-4.7,10.5-10.5,10.5h-17c-5.8,0-10.5-4.7-10.5-10.5v-20.8c0-3.7,3-6.8,6.8-6.8l0,0h24.5
	C126.4,110.5,129.4,113.6,129.4,117.3z"/>
<path class="st1" d="M176.9,69.5V94c0,3.7-3,6.8-6.8,6.8h-24.5c-3.7,0-6.8-3-6.8-6.8V69.5c0-3.7,3-6.8,6.8-6.8h24.5
	C173.8,62.8,176.9,65.8,176.9,69.5z"/>
<path class="st3" d="M122.6,76.3v10.9c0,3.7-3,6.8-6.8,6.8h-10.9c-3.7,0-6.8-3-6.8-6.8V76.3c0-3.7,3-6.8,6.8-6.8h10.9
	C119.5,69.6,122.6,72.6,122.6,76.3z"/>
</svg>
