<svg id="圖層_1" data-name="圖層 1" xmlns="http://www.w3.org/2000/svg" viewBox="0 0 24 24"><defs><style>.cls-1{fill:#4285f4;}.cls-2{fill:#34a853;}.cls-3{fill:#fbbc05;}.cls-4{fill:#ea4335;}</style></defs><path class="cls-1" d="M12.24,9.82v4.65H18.7a5.59,5.59,0,0,1-2.41,3.61l3.89,3a11.73,11.73,0,0,0,3.58-8.83,13.87,13.87,0,0,0-.22-2.45Z"/><path class="cls-2" d="M5.51,14.28,4.64,15,1.53,17.38h0A12,12,0,0,0,12.24,24a11.45,11.45,0,0,0,7.94-2.9l-3.89-3A7.23,7.23,0,0,1,5.52,14.29Z"/><path class="cls-3" d="M1.53,6.62a11.86,11.86,0,0,0,0,10.76s4-3.1,4-3.1a7,7,0,0,1,0-4.56Z"/><path class="cls-4" d="M12.24,4.78a6.52,6.52,0,0,1,4.59,1.79l3.44-3.44a11.52,11.52,0,0,0-8-3.13A12,12,0,0,0,1.53,6.62l4,3.1a7.16,7.16,0,0,1,6.72-4.94Z"/></svg>