<svg width="30" height="30" viewBox="0 0 30 30" fill="none" xmlns="http://www.w3.org/2000/svg">
<rect width="30" height="30" rx="9" fill="#F2EEEE"/>
<path d="M21.48 21.48C19.6152 22.9015 17.3445 23.689 15 23.7273C7.36364 23.7273 3 15 3 15C4.35697 12.4712 6.23906 10.2618 8.52 8.52003M12.7091 6.53457C13.46 6.35881 14.2288 6.27094 15 6.27275C22.6364 6.27275 27 15 27 15C26.3378 16.2389 25.5481 17.4052 24.6436 18.48M17.3127 17.3128C17.0131 17.6343 16.6518 17.8922 16.2503 18.0711C15.8489 18.2499 15.4155 18.3461 14.9761 18.3539C14.5367 18.3616 14.1002 18.2808 13.6927 18.1162C13.2852 17.9516 12.915 17.7066 12.6042 17.3958C12.2934 17.0851 12.0484 16.7149 11.8838 16.3074C11.7192 15.8999 11.6384 15.4634 11.6461 15.0239C11.6539 14.5845 11.7501 14.1511 11.929 13.7497C12.1078 13.3482 12.3657 12.9869 12.6873 12.6873M3 3L27 27" stroke="#B6AEAE" stroke-width="1.5" stroke-linecap="round" stroke-linejoin="round"/>
</svg>
